<?xml version="1.0" encoding="UTF-8"?>
<svg width="600px" height="505px" viewBox="0 0 600 505" version="1.1" xmlns="http://www.w3.org/2000/svg" xmlns:xlink="http://www.w3.org/1999/xlink">
    <title>404</title>
    <defs>
        <polygon id="path-1" points="0.402944609 0.297799597 113.575219 0.297799597 113.575219 228.807211 0.402944609 228.807211"></polygon>
        <polygon id="path-3" points="0.402944609 0.149943613 101.397803 0.149943613 101.397803 209.362785 0.402944609 209.362785"></polygon>
        <polygon id="path-5" points="0.402944609 261.35549 448.649432 261.35549 448.649432 0.00507245897 0.402944609 0.00507245897"></polygon>
        <polygon id="path-7" points="0.281448127 0.404687125 454.005298 0.404687125 454.005298 7.60848993 0.281448127 7.60848993"></polygon>
        <polygon id="path-9" points="0 480.602947 520.415336 480.602947 520.415336 0.221491596 0 0.221491596"></polygon>
        <polygon id="path-11" points="-5.23213586e-14 480.839398 520.415336 480.839398 520.415336 0 -5.23213586e-14 0"></polygon>
    </defs>
    <g id="404" stroke="none" stroke-width="1" fill="none" fill-rule="evenodd">
        <g id="编组" transform="translate(20.000000, 10.000000)">
            <polygon id="Fill-1" fill="#E6E5CE" points="57.4358974 376.961697 520.512821 376.961697 520.512821 71.8334916 57.4358974 71.8334916"></polygon>
            <polygon id="Fill-2" fill="#D6EDE7" points="64.6153846 369.78221 513.333333 369.78221 513.333333 79.0129788 64.6153846 79.0129788"></polygon>
            <polygon id="Fill-3" fill="#C2E4DC" points="64.6153846 154.397594 513.333333 154.397594 513.333333 79.0129788 64.6153846 79.0129788"></polygon>
            <polygon id="Fill-4" fill="#AEDBD0" points="64.6153846 111.320671 513.333333 111.320671 513.333333 79.0129788 64.6153846 79.0129788"></polygon>
            <g transform="translate(64.615385, 107.730928)">
                <g transform="translate(0.000000, 32.548278)">
                    <mask id="mask-2" fill="white">
                        <use xlink:href="#path-1"></use>
                    </mask>
                    <g id="Clip-6"></g>
                    <path d="M107.696957,195.189489 C109.279345,189.916668 108.838491,184.367821 106.834843,179.511364 C105.30442,175.802128 105.66051,171.599174 107.886928,168.536254 C109.755978,165.965362 111.244658,162.997129 112.238389,159.685236 C114.936329,150.696838 113.420815,141.131026 108.861066,133.458086 C106.474492,129.441967 106.129902,124.490824 108.082011,120.442157 C108.546292,119.479235 108.943274,118.459671 109.264863,117.387691 C111.639936,109.4755 109.253362,100.907272 103.799128,95.2747288 C100.638611,92.0114468 99.8974653,86.9411014 102.18309,83.1891726 C103.256047,81.4277612 104.202924,79.5019176 104.796267,77.5257721 C108.5612,64.9811584 101.974376,51.0124518 90.0841029,46.3254997 L90.0491753,46.3119731 C88.2989646,45.6233868 87.3512354,43.5627004 87.9181691,41.7218205 C87.9386145,41.6554558 87.9590599,41.5890911 87.9790794,41.5223037 C92.7986547,25.463744 84.1741066,7.55500493 68.7574288,1.90259482 C54.2799613,-3.40446538 38.2269206,4.9109857 33.6573754,20.0691839 C32.5541761,23.7285404 32.1503796,27.4842735 32.367186,31.1698377 C32.845523,39.3026802 28.140527,46.5533376 20.8943392,48.5265242 C8.40688981,51.9271852 -2.05816951,61.7436614 -6.29718087,75.8675007 C-8.98830565,84.8339174 -8.76851768,94.2002129 -6.19665769,102.783659 C-3.93403426,110.336128 -6.53528451,118.364562 -12.521951,122.493966 C-18.36337,126.524035 -22.95762,132.651565 -25.2705051,140.357053 C-29.3685284,154.010422 -25.1580554,168.805517 -15.6279468,178.410218 C-13.8445123,180.207559 -13.180463,182.884127 -13.9126636,185.279595 C-13.9194787,185.301153 -13.9262939,185.323979 -13.933109,185.346383 C-16.0547444,192.414854 -12.3430538,200.286043 -5.64292831,202.927103 C-5.59224078,202.947393 -5.5411273,202.966837 -5.49001382,202.985859 C-4.72629322,203.275412 -4.29182863,204.157174 -4.53333983,204.959468 L-4.53802523,204.975108 C-7.52603415,214.931077 -2.29882881,226.017781 7.13799764,229.737162 C8.5653416,230.300205 10.0075937,230.661618 11.4370673,230.835772 C14.7304793,231.236919 17.657578,233.545311 19.1343317,236.790416 C23.7788433,246.99874 32.0783948,255.432971 42.8228745,259.524755 C62.8742672,267.161342 85.1111871,255.927113 91.573209,234.900925 C92.9311238,230.483236 93.5466153,225.961139 93.493798,221.488921 C93.4184056,215.074374 96.0775845,209.14636 100.794081,205.465023 C103.93969,203.009108 106.402082,199.504038 107.696957,195.189489" id="Fill-5" fill="#89CEBC" mask="url(#mask-2)"></path>
                </g>
                <g transform="translate(0.000000, 51.992704)">
                    <mask id="mask-4" fill="white">
                        <use xlink:href="#path-3"></use>
                    </mask>
                    <g id="Clip-8"></g>
                    <path d="M98.7888139,169.720292 C99.8971246,164.951336 99.1466083,160.066135 97.0173058,155.893615 C95.3906193,152.706842 95.4502517,148.962945 97.2835219,146.109687 C98.8228896,143.713795 99.9912586,140.99073 100.687254,137.995021 C102.576749,129.86556 100.59525,121.492198 95.9618125,114.98846 C93.5364778,111.583995 92.9116155,107.222103 94.4335194,103.51329 C94.7951473,102.630682 95.0924573,101.703267 95.3177826,100.734005 C96.9811005,93.5767654 94.2699562,86.1422314 88.9507466,81.5021995 C85.8686037,78.8133736 84.8744465,74.3715903 86.7187913,70.9045646 C87.5847388,69.2763053 88.3250324,67.5110896 88.7407554,65.7230478 C91.3777851,54.3768025 84.5034478,42.4273572 73.3858397,39.0338822 L73.3530419,39.02416 C71.7165586,38.5262136 70.7241052,36.7614206 71.1244942,35.0955405 C71.1389763,35.0355164 71.1530325,34.9750696 71.1670887,34.9150455 C74.5431341,20.3900592 65.5659031,5.08180075 51.1774581,1.05764997 C37.6660354,-2.72048656 23.5783081,5.66344271 20.3734928,19.3751447 C19.5995495,22.6853469 19.4687842,26.0365515 19.8981374,29.2858841 C20.8454406,36.4566503 17.0195966,43.1759676 10.5482039,45.3837554 C-0.603905779,49.188945 -9.51085581,58.5463637 -12.4801231,71.3213517 C-14.3649327,79.4313681 -13.5752294,87.7108893 -10.6941329,95.1471142 C-8.15890423,101.690586 -10.0211387,108.96407 -15.2104349,113.001324 C-20.2736511,116.940934 -24.069679,122.658441 -25.6895504,129.627999 C-28.5599983,141.978169 -23.7957959,154.810222 -14.5169953,162.707618 C-12.7808408,164.185817 -12.0077494,166.513653 -12.5235696,168.680861 C-12.528255,168.701151 -12.5329404,168.721441 -12.5376258,168.741731 C-14.0237502,175.135142 -10.1497743,181.868409 -3.88539127,183.780726 C-3.83768535,183.795098 -3.78997943,183.809047 -3.74269946,183.822997 C-3.02924046,184.030545 -2.57816399,184.783805 -2.74726442,185.510012 L-2.75067199,185.523961 C-4.84376904,194.528844 0.612595071,204.012229 9.4356338,206.705704 C10.7705475,207.113192 12.1054613,207.341453 13.4177999,207.404858 C16.4407364,207.550691 19.2502741,209.40848 20.7985866,212.187764 C25.6688495,220.930993 33.7541503,227.870539 43.7911342,230.810452 C62.5225212,236.296316 82.055538,224.935276 86.6135827,205.907215 C87.5711086,201.909272 87.8466954,197.866099 87.5170135,193.909581 C87.0442138,188.23519 89.0917347,182.816959 93.1527007,179.257361 C95.8612893,176.883027 97.8819756,173.622704 98.7888139,169.720292" id="Fill-7" fill="#F4FFD4" mask="url(#mask-4)"></path>
                </g>
                <mask id="mask-6" fill="white">
                    <use xlink:href="#path-5"></use>
                </mask>
                <g id="Clip-10"></g>
                <polygon id="Fill-9" fill="#EF918E" mask="url(#mask-6)" points="66.435599 265.210136 178.30299 265.210136 178.30299 94.8313113 66.435599 94.8313113"></polygon>
                <path d="M163.931157,127.596437 L165.873469,127.596437 L165.873469,110.250318 L163.931157,110.250318 L163.931157,127.596437 Z M142.955888,127.596437 L144.8982,127.596437 L144.8982,110.250318 L142.955888,110.250318 L142.955888,127.596437 Z M121.981045,127.596437 L123.923357,127.596437 L123.923357,110.250318 L121.981045,110.250318 L121.981045,127.596437 Z M101.005776,127.596437 L102.948088,127.596437 L102.948088,110.250318 L101.005776,110.250318 L101.005776,127.596437 Z M80.0305071,127.596437 L81.9728194,127.596437 L81.9728194,110.250318 L80.0305071,110.250318 L80.0305071,127.596437 Z" id="Fill-11" fill="#184657" mask="url(#mask-6)"></path>
                <path d="M163.931157,161.710837 L165.873469,161.710837 L165.873469,144.364719 L163.931157,144.364719 L163.931157,161.710837 Z M142.955888,161.710837 L144.8982,161.710837 L144.8982,144.364719 L142.955888,144.364719 L142.955888,161.710837 Z M121.981045,161.710837 L123.923357,161.710837 L123.923357,144.364719 L121.981045,144.364719 L121.981045,161.710837 Z M101.005776,161.710837 L102.948088,161.710837 L102.948088,144.364719 L101.005776,144.364719 L101.005776,161.710837 Z M80.0305071,161.710837 L81.9728194,161.710837 L81.9728194,144.364719 L80.0305071,144.364719 L80.0305071,161.710837 Z" id="Fill-12" fill="#184657" mask="url(#mask-6)"></path>
                <path d="M163.931157,195.825238 L165.873469,195.825238 L165.873469,178.479119 L163.931157,178.479119 L163.931157,195.825238 Z M142.955888,195.825238 L144.8982,195.825238 L144.8982,178.479119 L142.955888,178.479119 L142.955888,195.825238 Z M121.981045,195.825238 L123.923357,195.825238 L123.923357,178.479119 L121.981045,178.479119 L121.981045,195.825238 Z M101.005776,195.825238 L102.948088,195.825238 L102.948088,178.479119 L101.005776,178.479119 L101.005776,195.825238 Z M80.0305071,195.825238 L81.9728194,195.825238 L81.9728194,178.479119 L80.0305071,178.479119 L80.0305071,195.825238 Z" id="Fill-13" fill="#184657" mask="url(#mask-6)"></path>
                <path d="M163.931157,229.939638 L165.873469,229.939638 L165.873469,212.593096 L163.931157,212.593096 L163.931157,229.939638 Z M142.955888,229.939638 L144.8982,229.939638 L144.8982,212.593096 L142.955888,212.593096 L142.955888,229.939638 Z M121.981045,229.939638 L123.923357,229.939638 L123.923357,212.593096 L121.981045,212.593096 L121.981045,229.939638 Z M101.005776,229.939638 L102.948088,229.939638 L102.948088,212.593096 L101.005776,212.593096 L101.005776,229.939638 Z M80.0305071,229.939638 L81.9728194,229.939638 L81.9728194,212.593096 L80.0305071,212.593096 L80.0305071,229.939638 Z" id="Fill-14" fill="#184657" mask="url(#mask-6)"></path>
                <path d="M163.931157,264.053615 L165.873469,264.053615 L165.873469,246.707496 L163.931157,246.707496 L163.931157,264.053615 Z M142.955888,264.053615 L144.8982,264.053615 L144.8982,246.707496 L142.955888,246.707496 L142.955888,264.053615 Z M121.981045,264.053615 L123.923357,264.053615 L123.923357,246.707496 L121.981045,246.707496 L121.981045,264.053615 Z M101.005776,264.053615 L102.948088,264.053615 L102.948088,246.707496 L101.005776,246.707496 L101.005776,264.053615 Z M80.0305071,264.053615 L81.9728194,264.053615 L81.9728194,246.707496 L80.0305071,246.707496 L80.0305071,264.053615 Z" id="Fill-15" fill="#184657" mask="url(#mask-6)"></path>
                <path d="M346.527381,226.764828 C350.147919,229.591033 352.189476,234.141451 352.131122,239.065541 C352.090657,242.498328 352.563457,245.970003 353.60532,249.360942 C358.565883,265.501929 375.636082,274.125109 391.028055,268.26346 C399.276067,265.121917 405.646937,258.648191 409.212528,250.811665 C410.345543,248.320242 412.592833,246.548686 415.12082,246.240534 C416.218482,246.106959 417.325089,245.829242 418.421047,245.397238 C425.665105,242.541866 429.677514,234.031548 427.383796,226.389043 L427.380389,226.377207 C427.195102,225.761326 427.528618,225.08373 428.114719,224.862233 C428.153906,224.847438 428.193093,224.832221 428.23228,224.817004 C433.375148,222.789711 436.224299,216.747144 434.595908,211.321304 C434.590797,211.303973 434.585686,211.287065 434.580148,211.269734 C434.018326,209.430967 434.528183,207.376199 435.896747,205.99649 C443.212364,198.624094 446.444865,187.266858 443.298831,176.78589 C441.523489,170.87098 437.996659,166.167119 433.512729,163.073765 C428.917201,159.903478 426.920367,153.740863 428.657374,147.943043 C430.631206,141.354341 430.800307,134.164553 428.73447,127.281226 C425.480245,116.439268 417.44691,108.90413 407.861002,106.293505 C402.298578,104.778953 398.686984,99.2131973 399.054149,92.9698457 C399.220268,90.1406817 398.910606,87.2578342 398.063826,84.4485373 C394.556163,72.8127391 382.233129,66.4290495 371.11978,70.5035022 C359.285305,74.8425681 352.664832,88.5893547 356.364596,100.916698 C356.37993,100.967845 356.39569,101.019415 356.41145,101.07014 C356.846766,102.48282 356.119251,104.065427 354.775393,104.593808 L354.748558,104.603953 C345.621394,108.202017 340.564993,118.924773 343.455034,128.553991 C343.910796,130.071501 344.63746,131.549701 345.461238,132.901934 C347.215709,135.782245 346.646645,139.674089 344.220459,142.179461 C340.033413,146.502887 338.201846,153.080175 340.024894,159.154022 C340.271516,159.976606 340.576493,160.759033 340.93301,161.498344 C342.431487,164.606493 342.166975,168.407033 340.334982,171.48982 C336.834561,177.380213 335.671303,184.72302 337.742251,191.622832 C338.50512,194.164979 339.647932,196.443782 341.082517,198.417391 C342.791411,200.768476 343.064868,203.994982 341.89011,206.842323 C340.35202,210.570157 340.013819,214.830177 341.228616,218.877154 C342.222348,222.189047 344.112694,224.879987 346.527381,226.764828" id="Fill-16" fill="#89CEBC" mask="url(#mask-6)"></path>
                <path d="M352.393078,221.573039 C355.510575,224.305827 357.082314,228.46482 356.719409,232.820372 C356.466397,235.857929 356.678092,238.961851 357.412848,242.030266 C360.911992,256.637257 375.906132,265.358505 390.28478,261.147096 C397.989711,258.890697 404.19574,253.56377 407.934691,246.851639 C409.123079,244.718247 411.280068,243.292463 413.600194,243.180446 C414.607556,243.131835 415.632807,242.956413 416.657206,242.643611 C423.430169,240.576161 427.618492,233.295915 426.011825,226.383844 L426.00927,226.372431 C425.879782,225.815306 426.22565,225.237468 426.773416,225.078108 C426.810047,225.067541 426.846253,225.056551 426.882884,225.04556 C431.691811,223.577506 434.665338,218.409093 433.524655,213.500644 C433.521248,213.485426 433.517414,213.469786 433.514006,213.454569 C433.118303,211.790379 433.711219,210.003606 435.044429,208.869066 C442.167093,202.806632 445.823836,192.956339 443.62042,183.476336 C442.377084,178.12616 439.46319,173.737215 435.576435,170.713184 C431.592991,167.613912 430.163518,162.02998 432.109664,157.0074 C434.321174,151.29877 434.927294,144.943824 433.480357,138.717804 C431.201121,128.91105 424.363841,121.728448 415.803185,118.807134 C410.835807,117.11251 407.898911,111.954665 408.626001,106.449779 C408.955257,103.95582 408.855159,101.383237 408.260965,98.8419355 C405.801129,88.3165832 394.986368,81.8804781 384.614591,84.781502 C373.56982,87.8697841 366.678444,99.6209807 369.269898,110.771091 C369.280547,110.817166 369.291621,110.863663 369.302696,110.909315 C369.609803,112.188843 368.848212,113.54319 367.592098,113.925315 L367.566967,113.932924 C359.03272,116.538054 353.755679,125.710751 355.779772,134.420163 C356.098806,135.792686 356.667443,137.147455 357.331919,138.397393 C358.747762,141.059166 357.984467,144.469549 355.618765,146.533195 C351.53565,150.094906 349.454053,155.801423 350.731038,161.295741 C350.903972,162.039702 351.132279,162.752382 351.409996,163.429133 C352.578365,166.276896 352.098324,169.624719 350.236941,172.237881 C346.679869,177.230871 345.158817,183.658522 346.609162,189.898915 C347.143724,192.198852 348.04034,194.288705 349.221913,196.127894 C350.629663,198.317928 350.67524,201.191899 349.426793,203.638515 C347.792013,206.84135 347.215709,210.591588 348.066748,214.252636 C348.762743,217.248345 350.313612,219.750336 352.393078,221.573039" id="Fill-17" fill="#F4FFD4" mask="url(#mask-6)"></path>
                <path d="M134.900786,267.836148 C143.782606,260.968461 149.501778,250.261346 149.501778,238.221441 C149.501778,217.493683 132.569586,200.690318 111.682488,200.690318 C109.289951,200.690318 106.952787,200.920692 104.683774,201.342551 C100.208363,185.041782 85.1942039,173.053025 67.3500617,173.053025 C45.9765337,173.053025 28.6499155,190.247815 28.6499155,211.458725 C28.6499155,215.087224 29.1682913,218.593561 30.1155945,221.920672 C27.5680134,221.227013 24.8888151,220.849115 22.1188904,220.849115 C5.45972908,220.849115 -8.04530452,234.251397 -8.04530452,250.783809 C-8.04530452,257.122269 -6.05486038,262.997022 -2.66774036,267.836148 L134.900786,267.836148 Z" id="Fill-18" fill="#41B093" mask="url(#mask-6)"></path>
                <path d="M15.9563936,267.836148 C8.60797876,262.154148 3.87614825,253.295521 3.87614825,243.334057 C3.87614825,226.184919 17.8850756,212.282154 35.1661176,212.282154 C37.1459131,212.282154 39.0792805,212.472794 40.9568491,212.821949 C44.6595948,199.335126 57.0818745,189.415932 71.8451516,189.415932 C89.5287123,189.415932 103.86434,203.642911 103.86434,221.191506 C103.86434,224.193556 103.435413,227.09458 102.651673,229.847657 C104.759678,229.273201 106.976299,228.960822 109.267887,228.960822 C123.051063,228.960822 134.22447,240.04964 134.22447,253.727949 C134.22447,258.972026 132.577338,263.832287 129.775467,267.836148 L15.9563936,267.836148 Z" id="Fill-19" fill="#41B093" mask="url(#mask-6)"></path>
                <path d="M407.57745,267.836148 C416.459269,260.968461 422.178442,250.261346 422.178442,238.221441 C422.178442,217.493683 405.246249,200.690318 384.359151,200.690318 C381.966614,200.690318 379.629451,200.920692 377.360012,201.342551 C372.885027,185.041782 357.870868,173.053025 340.026725,173.053025 C318.653197,173.053025 301.326579,190.247815 301.326579,211.458725 C301.326579,215.087224 301.844529,218.593561 302.792258,221.920672 C300.244677,221.227013 297.565479,220.849115 294.795554,220.849115 C278.136393,220.849115 264.631359,234.251397 264.631359,250.783809 C264.631359,257.122269 266.621803,262.997022 270.008923,267.836148 L407.57745,267.836148 Z" id="Fill-20" fill="#41B093" mask="url(#mask-6)"></path>
                <path d="M288.632972,267.836148 C281.284557,262.154148 276.552727,253.295521 276.552727,243.334057 C276.552727,226.184919 290.561654,212.282154 307.842696,212.282154 C309.822492,212.282154 311.755859,212.472794 313.633428,212.821949 C317.336173,199.335126 329.758453,189.415932 344.52173,189.415932 C362.205717,189.415932 376.540918,203.642911 376.540918,221.191506 C376.540918,224.193556 376.112417,227.09458 375.328251,229.847657 C377.436256,229.273201 379.652878,228.960822 381.944465,228.960822 C395.727641,228.960822 406.901048,240.04964 406.901048,253.727949 C406.901048,258.972026 405.254342,263.832287 402.452046,267.836148 L288.632972,267.836148 Z" id="Fill-21" fill="#41B093" mask="url(#mask-6)"></path>
                <path d="M423.604551,20.9872145 C412.764659,15.3208551 402.514702,15.1483915 396.326138,25.100556 C390.137147,35.0527205 401.317369,41.4186565 414.476535,51.4912919 C427.635701,61.5639273 451.88777,79.2515917 451.88777,79.2515917 L470.26477,55.6075924 C470.26477,55.6075924 434.444442,26.6535738 423.604551,20.9872145" id="Fill-22" fill="#46ACC3" mask="url(#mask-6)"></path>
                <path d="M495.186894,66.8742001 C495.186894,85.8739406 480.709852,101.27604 462.851654,101.27604 C444.993881,101.27604 430.51684,85.8739406 430.51684,66.8742001 C430.51684,47.8748823 444.993881,32.4723606 462.851654,32.4723606 C480.709852,32.4723606 495.186894,47.8748823 495.186894,66.8742001" id="Fill-23" fill="#46ACC3" mask="url(#mask-6)"></path>
                <path d="M419.618466,30.3089991 C417.641652,32.8524146 413.961481,33.3237306 411.398992,31.3615344 C408.836077,29.4001836 408.361148,25.7480131 410.337961,23.2045976 C412.314775,20.6616049 415.99452,20.1902889 418.557435,22.1516397 C421.12035,24.1138359 421.59528,27.7655837 419.618466,30.3089991" id="Fill-24" fill="#0D232B" mask="url(#mask-6)"></path>
                <polygon id="Fill-25" fill="#DEB052" mask="url(#mask-6)" points="411.14449 33.3670156 412.78438 50.2452001 406.569407 45.2336106"></polygon>
                <path d="M403.481471,33.1119131 C403.481471,33.1119131 403.749391,46.5678787 407.027469,50.3629234 L411.14466,33.3672269 C411.14466,33.3672269 406.676064,31.6962744 403.481471,33.1119131" id="Fill-26" fill="#FCCB67" mask="url(#mask-6)"></path>
                <polygon id="Fill-27" fill="#5190A7" mask="url(#mask-6)" points="408.252744 265.210136 462.632803 265.210136 462.632803 142.629938 408.252744 142.629938"></polygon>
                <path d="M444.829551,170.833655 L446.771864,170.833655 L446.771864,153.487536 L444.829551,153.487536 L444.829551,170.833655 Z M423.854283,170.833655 L425.796595,170.833655 L425.796595,153.487536 L423.854283,153.487536 L423.854283,170.833655 Z" id="Fill-28" fill="#184657" mask="url(#mask-6)"></path>
                <path d="M444.829551,202.185678 L446.771864,202.185678 L446.771864,184.839137 L444.829551,184.839137 L444.829551,202.185678 Z M423.854283,202.185678 L425.796595,202.185678 L425.796595,184.839137 L423.854283,184.839137 L423.854283,202.185678 Z" id="Fill-29" fill="#184657" mask="url(#mask-6)"></path>
                <path d="M444.829551,233.537279 L446.771864,233.537279 L446.771864,216.19116 L444.829551,216.19116 L444.829551,233.537279 Z M423.854283,233.537279 L425.796595,233.537279 L425.796595,216.19116 L423.854283,216.19116 L423.854283,233.537279 Z" id="Fill-30" fill="#184657" mask="url(#mask-6)"></path>
                <path d="M444.829551,264.889303 L446.771864,264.889303 L446.771864,247.542761 L444.829551,247.542761 L444.829551,264.889303 Z M423.854283,264.889303 L425.796595,264.889303 L425.796595,247.542761 L423.854283,247.542761 L423.854283,264.889303 Z" id="Fill-31" fill="#184657" mask="url(#mask-6)"></path>
                <polygon id="Fill-32" fill="#41B093" mask="url(#mask-6)" points="291.72423 254.416788 341.443165 254.416788 341.443165 84.037964 291.72423 84.037964"></polygon>
                <path d="M300.658441,94.9593909 L330.826469,94.9593909 L330.826469,93.0318565 L300.658441,93.0318565 L300.658441,94.9593909 Z M300.658441,115.774649 L330.826469,115.774649 L330.826469,113.847115 L300.658441,113.847115 L300.658441,115.774649 Z M300.658441,136.59033 L330.826469,136.59033 L330.826469,134.662795 L300.658441,134.662795 L300.658441,136.59033 Z M300.658441,157.405588 L330.826469,157.405588 L330.826469,155.478053 L300.658441,155.478053 L300.658441,157.405588 Z M300.658015,178.221269 L330.826043,178.221269 L330.826043,176.293734 L300.658015,176.293734 L300.658015,178.221269 Z" id="Fill-33" fill="#184657" mask="url(#mask-6)"></path>
                <path d="M301.693915,199.550536 L331.861943,199.550536 L331.861943,197.623002 L301.693915,197.623002 L301.693915,199.550536 Z M301.693915,220.366639 L331.861943,220.366639 L331.861943,218.439105 L301.693915,218.439105 L301.693915,220.366639 Z M301.693915,241.181898 L331.861943,241.181898 L331.861943,239.254363 L301.693915,239.254363 L301.693915,241.181898 Z" id="Fill-34" fill="#184657" mask="url(#mask-6)"></path>
            </g>
            <polygon id="Fill-35" fill="#E6E5CE" points="157.948718 373.371953 168.717949 373.371953 168.717949 75.4232352 157.948718 75.4232352"></polygon>
            <g transform="translate(39.487179, 0.038620)">
                <g transform="translate(18.683943, 472.994457)">
                    <mask id="mask-8" fill="white">
                        <use xlink:href="#path-7"></use>
                    </mask>
                    <g id="Clip-37"></g>
                    <path d="M450.386983,7.60865901 L3.89976359,7.60865901 C1.90143093,7.60865901 0.281448127,5.99608183 0.281448127,4.00688441 C0.281448127,2.0172643 1.90143093,0.404687125 3.89976359,0.404687125 L450.386983,0.404687125 C452.385316,0.404687125 454.005298,2.0172643 454.005298,4.00688441 C454.005298,5.99608183 452.385316,7.60865901 450.386983,7.60865901" id="Fill-36" fill="#A7C7D3" mask="url(#mask-8)"></path>
                </g>
                <path d="M261.136133,78.823068 L261.136133,49.1846182 C261.136133,42.0495454 255.325426,36.2649796 248.157586,36.2649796 C240.989322,36.2649796 235.178615,42.0495454 235.178615,49.1846182 L235.178615,78.823068 C220.842935,78.823068 209.221523,90.3913542 209.221523,104.661922 L287.09365,104.661922 C287.09365,90.3913542 275.471813,78.823068 261.136133,78.823068" id="Fill-902" fill="#0D232B"></path>
                <mask id="mask-10" fill="white">
                    <use xlink:href="#path-9"></use>
                </mask>
                <g id="Clip-905"></g>
                <polygon id="Fill-904" fill="#0D232B" mask="url(#mask-10)" points="246.521467 38.8709297 249.793705 38.8709297 249.793705 0.221068902 246.521467 0.221068902"></polygon>
                <path d="M441.428669,132.610442 C441.428669,132.929576 441.168792,133.188687 440.847768,133.188687 C440.527169,133.188687 440.266868,132.929576 440.266868,132.610442 C440.266868,132.290886 440.527169,132.032197 440.847768,132.032197 C441.168792,132.032197 441.428669,132.290886 441.428669,132.610442" id="Fill-906" fill="#FFFFFF" mask="url(#mask-10)"></path>
                <path d="M218.318267,170.026713 L218.812543,165.43668 L218.592582,165.43668 L216.725886,169.371115 L211.016667,176.748391 L208.271826,178.825086 L211.785257,178.387598 L218.318267,178.387598 L218.318267,170.026713 Z M230.999569,184.07114 L224.960834,184.07114 L224.960834,194.727676 L218.318267,194.727676 L218.318267,184.07114 L201.684038,184.07114 L201.684038,180.027228 L219.086857,156.201241 L224.960834,156.201241 L224.960834,178.387598 L230.999569,178.387598 L230.999569,184.07114 Z" id="Fill-907" fill="#FFFFFF" mask="url(#mask-10)"></path>
                <path d="M241.100024,175.546081 C241.100024,179.991552 241.584533,183.425095 242.555248,185.847131 C243.524266,188.270857 245.125565,189.481453 247.358296,189.481453 C249.517565,189.481453 251.10018,188.370191 252.107414,186.147666 C253.113375,183.925987 253.616992,180.391843 253.616992,175.546081 C253.616992,171.138652 253.140976,167.731739 252.189369,165.327033 C251.237337,162.922751 249.609286,161.720609 247.303518,161.720609 C245.10773,161.720609 243.524266,162.85047 242.555248,165.108923 C241.584533,167.367799 241.100024,170.84657 241.100024,175.546081 M233.963607,175.546081 C233.963607,168.843847 235.116067,163.861131 237.421835,160.60047 C239.727604,157.340232 243.039757,155.709057 247.358296,155.709057 C251.969833,155.709057 255.355024,157.321634 257.514718,160.545943 C259.673562,163.769829 260.753834,168.769875 260.753834,175.546081 C260.753834,182.286357 259.591608,187.29528 257.26758,190.574116 C254.943127,193.852953 251.621632,195.49216 247.303518,195.49216 C242.728075,195.49216 239.361568,193.77095 237.202299,190.328531 C235.042605,186.885267 233.963607,181.95877 233.963607,175.546081" id="Fill-908" fill="#FFFFFF" mask="url(#mask-10)"></path>
                <path d="M280.570873,170.026713 L281.065149,165.43668 L280.845188,165.43668 L278.978492,169.371115 L273.269273,176.748391 L270.524432,178.825086 L274.037863,178.387598 L280.570873,178.387598 L280.570873,170.026713 Z M293.252175,184.07114 L287.21344,184.07114 L287.21344,194.727676 L280.570873,194.727676 L280.570873,184.07114 L263.936644,184.07114 L263.936644,180.027228 L281.339463,156.201241 L287.21344,156.201241 L287.21344,178.387598 L293.252175,178.387598 L293.252175,184.07114 Z" id="Fill-909" fill="#FFFFFF" mask="url(#mask-10)"></path>
                <path d="M341.77824,317.633151 C341.77824,360.951665 302.123694,381.891498 253.207432,381.891498 C204.291594,381.891498 164.637048,360.951665 164.637048,317.633151 C164.637048,274.314636 189.290086,225.020498 253.207432,225.020498 C321.314226,225.020498 341.77824,274.314636 341.77824,317.633151" id="Fill-910" fill="#F6F6EE" mask="url(#mask-10)"></path>
                <path d="M342.015526,322.594436 C342.015526,365.91295 302.36098,386.853205 253.445142,386.853205 C204.52888,386.853205 164.874334,365.91295 164.874334,322.594436 C164.874334,279.275921 189.527372,229.982205 253.445142,229.982205 C321.551513,229.982205 342.015526,279.275921 342.015526,322.594436" id="Fill-911" fill="#E6E5CE" mask="url(#mask-10)"></path>
                <path d="M164.874504,322.594436 C164.874504,365.91295 204.528626,386.853205 253.445312,386.853205 C302.36115,386.853205 342.015696,365.91295 342.015696,322.594436 C342.015696,319.384498 341.900195,316.141591 341.664098,312.888961 L165.290222,312.888961 C165.01336,316.141591 164.874504,319.384498 164.874504,322.594436" id="Fill-912" fill="#D5D4B9" mask="url(#mask-10)"></path>
                <path d="M182.862683,320.286104 C182.862683,353.762192 213.506897,369.944182 251.308761,369.944182 C289.1102,369.944182 319.754414,353.762192 319.754414,320.286104 C319.754414,317.805737 319.665666,315.299585 319.483073,312.785824 L183.184131,312.785824 C182.970115,315.299585 182.862683,317.805737 182.862683,320.286104" id="Fill-913" fill="#BEBC97" mask="url(#mask-10)"></path>
                <polygon id="Fill-914" fill="#639BB0" mask="url(#mask-10)" points="244.869212 456.025411 256.249432 456.025411 256.249432 380.032236 244.869212 380.032236"></polygon>
                <polygon id="Fill-915" fill="#D5D4B9" mask="url(#mask-10)" points="244.869212 389.840848 256.249432 389.840848 256.249432 380.032236 244.869212 380.032236"></polygon>
                <path d="M291.101526,467.471919 L286.833943,467.471919 L286.833943,464.81402 C286.833943,461.399922 284.043242,458.621977 280.61304,458.621977 L220.50552,458.621977 C217.075743,458.621977 214.285041,461.399922 214.285041,464.81402 L214.285041,467.471919 L210.017459,467.471919 L210.017459,464.81402 C210.017459,459.057352 214.722415,454.373904 220.50552,454.373904 L280.61304,454.373904 C286.396145,454.373904 291.101526,459.057352 291.101526,464.81402 L291.101526,467.471919 Z" id="Fill-916" fill="#609AAF" mask="url(#mask-10)"></path>
                <path d="M231.142671,467.109502 C231.142671,470.829208 228.113749,473.844283 224.376961,473.844283 C220.640597,473.844283 217.611675,470.829208 217.611675,467.109502 C217.611675,463.390218 220.640597,460.37472 224.376961,460.37472 C228.113749,460.37472 231.142671,463.390218 231.142671,467.109502" id="Fill-917" fill="#035E80" mask="url(#mask-10)"></path>
                <path d="M227.927419,467.109502 C227.927419,469.061079 226.33801,470.643645 224.377046,470.643645 C222.416505,470.643645 220.827096,469.061079 220.827096,467.109502 C220.827096,465.157924 222.416505,463.575781 224.377046,463.575781 C226.33801,463.575781 227.927419,465.157924 227.927419,467.109502" id="Fill-918" fill="#184657" mask="url(#mask-10)"></path>
                <path d="M283.809862,467.109502 C283.809862,470.829208 280.78094,473.844283 277.044152,473.844283 C273.307788,473.844283 270.278866,470.829208 270.278866,467.109502 C270.278866,463.390218 273.307788,460.37472 277.044152,460.37472 C280.78094,460.37472 283.809862,463.390218 283.809862,467.109502" id="Fill-919" fill="#035E80" mask="url(#mask-10)"></path>
                <path d="M280.59461,467.109502 C280.59461,469.061079 279.005201,470.643645 277.044237,470.643645 C275.083272,470.643645 273.493863,469.061079 273.493863,467.109502 C273.493863,465.157924 275.083272,463.575781 277.044237,463.575781 C279.005201,463.575781 280.59461,465.157924 280.59461,467.109502" id="Fill-920" fill="#184657" mask="url(#mask-10)"></path>
                <g mask="url(#mask-10)">
                    <g transform="translate(217.837793, 460.313641)">
                        <path d="M53.0578128,3.99838827 L65.3552445,3.99838827 C64.2872873,1.67737614 61.9390553,0.0614174215 59.2065286,0.0614174215 C56.4740019,0.0614174215 54.12577,1.67737614 53.0578128,3.99838827" id="Fill-921" fill="#CBC7FF"></path>
                        <path d="M0.390706731,3.99838827 L12.6881385,3.99838827 C11.6201813,1.67737614 9.2719493,0.0614174215 6.5394226,0.0614174215 C3.8068959,0.0614174215 1.45866394,1.67737614 0.390706731,3.99838827" id="Fill-922" fill="#CBC7FF"></path>
                        <path d="M53.0578128,3.99838827 L65.3552445,3.99838827 C64.2872873,1.67737614 61.9390553,0.0614174215 59.2065286,0.0614174215 C56.4740019,0.0614174215 54.12577,1.67737614 53.0578128,3.99838827" id="Fill-923" fill="#41B093"></path>
                        <path d="M0.390706731,3.99838827 L12.6881385,3.99838827 C11.6201813,1.67737614 9.2719493,0.0614174215 6.5394226,0.0614174215 C3.8068959,0.0614174215 1.45866394,1.67737614 0.390706731,3.99838827" id="Fill-924" fill="#41B093"></path>
                    </g>
                </g>
                <path d="M255.538338,427.253272 L245.580646,427.253272 C243.513098,427.253272 241.837063,425.5849 241.837063,423.527226 L241.837063,412.196916 C241.837063,410.139242 243.513098,408.470447 245.580646,408.470447 L255.538338,408.470447 C257.605887,408.470447 259.281921,410.139242 259.281921,412.196916 L259.281921,423.527226 C259.281921,425.5849 257.605887,427.253272 255.538338,427.253272" id="Fill-925" fill="#639BB0" mask="url(#mask-10)"></path>
                <path d="M282.176843,363.463651 L214.961357,363.463651 C206.388824,363.463651 199.023954,360.711491 199.617169,345.567214 C200.210384,330.422938 215.084502,313.849956 215.084502,313.849956 L283.619753,313.849956 C283.619753,313.849956 296.74947,333.128179 297.342685,345.390106 C297.936325,357.65161 290.749376,363.463651 282.176843,363.463651" id="Fill-926" fill="#0D232B" mask="url(#mask-10)"></path>
            </g>
            <g transform="translate(0.000000, 3.628363)">
                <polygon id="Fill-1057" fill="#D6B88D" points="173.594889 459.948702 163.162454 459.948702 191.615977 304.509271 202.048411 304.509271"></polygon>
                <polygon id="Fill-1059" fill="#B89F7A" points="187.378203 327.659861 197.810638 327.659861 202.048496 304.509271 191.616061 304.509271"></polygon>
                <polygon id="Fill-1061" fill="#D6B88D" points="442.692844 459.948702 453.125279 459.948702 424.671756 304.509271 414.239322 304.509271"></polygon>
                <polygon id="Fill-1063" fill="#B89F7A" points="428.909529 327.659861 418.477095 327.659861 414.239237 304.509271 424.671671 304.509271"></polygon>
                <mask id="mask-12" fill="white">
                    <use xlink:href="#path-11"></use>
                </mask>
                <g id="Clip-1066"></g>
                <polygon id="Fill-1065" fill="#D6B88D" mask="url(#mask-12)" points="156.405533 305.100083 456.20384 305.100083 456.20384 293.760665 156.405533 293.760665"></polygon>
                <path d="M279.621383,255.519777 C257.398531,256.938844 218.926169,267.468878 217.422961,283.365472 C216.165192,296.667637 226.542424,293.415714 237.444505,293.88916 C248.346161,294.362182 298.451826,293.652649 298.451826,293.652649 L279.621383,255.519777 Z" id="Fill-1067" fill="#E85F5B" mask="url(#mask-12)"></path>
                <path d="M311.306548,254.987606 C333.528976,256.406673 380.194672,267.747783 380.791284,283.720112 C381.208276,294.894099 370.413627,294.539121 356.734009,294.007288 C345.830654,293.583345 300.131427,293.652733 300.131427,293.652733 L311.306548,254.987606 Z" id="Fill-1068" fill="#E85F5B" mask="url(#mask-12)"></path>
                <path d="M222.600324,291.073958 C218.257581,287.799612 218.368411,282.049303 222.159977,278.132272 C225.479774,274.703072 231.783482,272.813945 238.230716,273.416435 C252.041972,274.70688 287.213646,282.628945 287.213646,282.628945 L286.773299,292.828964 C286.773299,292.828964 266.79337,293.257138 248.467819,293.486879 C238.02307,293.618039 227.663673,294.891984 222.600324,291.073958" id="Fill-1069" fill="#FFD6CB" mask="url(#mask-12)"></path>
                <path d="M273.687787,327.114489 C284.817473,328.320315 293.861775,335.391109 287.216236,354.309884 C281.087903,371.755859 241.658838,435.252116 235.556407,445.032846 C235.053215,445.839268 234.928372,446.824238 235.213302,447.730088 L238.561125,458.362511 L208.893571,458.362511 C208.893571,458.362511 211.266856,449.848957 214.589626,443.464003 C217.912395,437.078625 260.39671,353.127328 260.39671,353.127328 C260.39671,353.127328 252.801687,347.925353 251.377461,345.560241 C249.953659,343.195553 251.852203,324.749801 273.687787,327.114489" id="Fill-1070" fill="#FFD6CB" mask="url(#mask-12)"></path>
                <path d="M226.219361,448.666401 C222.484271,448.994724 219.020523,450.539451 216.915607,451.673351 C215.530447,452.420116 213.864604,452.429425 212.465007,451.710583 L211.282823,451.104285 C209.802969,455.102127 208.893401,458.362088 208.893401,458.362088 L238.560955,458.362088 L236.23353,450.969317 L236.009748,450.794578 C236.009748,450.794578 232.271685,448.134569 226.219361,448.666401" id="Fill-1072" fill="#E85F5B" mask="url(#mask-12)"></path>
                <path d="M236.555658,460.431709 L210.958232,460.431709 C209.850783,460.431709 208.95268,459.536859 208.95268,458.432999 L208.95268,458.292954 L238.56121,458.292954 L238.56121,458.432999 C238.56121,459.536859 237.663107,460.431709 236.555658,460.431709" id="Fill-1073" fill="#035E80" mask="url(#mask-12)"></path>
                <path d="M307.160666,327.114489 C296.030981,328.320315 286.986679,335.391109 293.632217,354.309884 C299.760551,371.755859 339.189616,435.252116 345.292047,445.032846 C345.795239,445.839268 345.920082,446.824238 345.635152,447.730088 L342.287329,458.362511 L371.954883,458.362511 C371.954883,458.362511 369.581598,449.848957 366.258828,443.464003 C362.936059,437.078625 320.451744,353.127328 320.451744,353.127328 C320.451744,353.127328 328.046767,347.925353 329.470993,345.560241 C330.894794,343.195553 328.996251,324.749801 307.160666,327.114489" id="Fill-1074" fill="#FFD6CB" mask="url(#mask-12)"></path>
                <path d="M354.629093,448.666401 C358.364183,448.994724 361.827931,450.539451 363.932847,451.673351 C365.318007,452.420116 366.98385,452.429425 368.383447,451.710583 L369.565631,451.104285 C371.045484,455.102127 371.955053,458.362088 371.955053,458.362088 L342.287499,458.362088 L344.614924,450.969317 L344.838706,450.794578 C344.838706,450.794578 348.576769,448.134569 354.629093,448.666401" id="Fill-1076" fill="#E85F5B" mask="url(#mask-12)"></path>
                <path d="M344.292795,460.431709 L369.890222,460.431709 C370.997671,460.431709 371.895774,459.536859 371.895774,458.432999 L371.895774,458.292954 L342.287244,458.292954 L342.287244,458.432999 C342.287244,459.536859 343.185347,460.431709 344.292795,460.431709" id="Fill-1077" fill="#035E80" mask="url(#mask-12)"></path>
                <path d="M376.149471,291.073958 C380.492214,287.799612 380.381384,282.049303 376.589817,278.132272 C373.27002,274.703072 366.966313,272.813945 360.519078,273.416435 C346.707822,274.70688 311.535724,282.628945 311.535724,282.628945 L311.976071,292.828964 C311.976071,292.828964 331.956425,293.257138 350.281976,293.486879 C360.726725,293.618039 371.086122,294.891984 376.149471,291.073958" id="Fill-1078" fill="#FFD6CB" mask="url(#mask-12)"></path>
                <path d="M276.773228,259.421872 C272.678897,263.501372 268.228721,266.870915 266.80492,272.191781 C265.380694,277.512647 265.914885,278.576735 265.914885,278.576735 C265.914885,278.576735 261.642631,280.17308 260.574674,286.026201 C259.506717,291.8789 260.930518,294.184777 260.930518,294.184777 L338.185651,293.652522 C338.185651,293.652522 340.143644,289.928 336.583503,284.429434 C333.023363,278.93129 329.107378,278.93129 329.107378,278.93129 C329.107378,278.93129 323.232976,276.270858 322.165019,272.546759 C321.097062,268.821815 313.976781,259.066894 313.976781,259.066894 L276.773228,259.421872 Z" id="Fill-1079" fill="#353535" opacity="0.29366" mask="url(#mask-12)"></path>
                <path d="M327.437628,324.431674 C321.919071,321.219946 321.003557,317.51531 324.98536,306.165314 C328.967164,294.815319 324.58408,291.330693 320.70971,286.296687 C317.104134,281.612582 314.843376,277.794979 319.526252,271.535685 C323.162402,266.675571 320.588689,258.792431 315.796682,256.586404 C313.311293,255.441927 313.834868,251.607824 311.806811,249.177979 C309.524397,246.443504 304.001169,245.307066 299.924672,246.859408 C298.759898,246.386809 297.532703,246.017868 296.25073,245.769934 C285.751203,243.741184 275.604972,250.494233 273.58838,260.853336 C272.939113,264.189877 273.2164,267.491725 274.235949,270.505021 C273.572244,271.681653 270.1913,277.980719 271.613827,281.827515 C273.187525,286.083446 274.06652,287.626057 269.976859,293.940778 C265.887623,300.254652 267.964514,302.590569 270.806171,309.061835 C273.647829,315.533101 270.3654,320.033159 266.575957,323.54994 C262.786513,327.066721 261.228952,335.391574 266.091024,339.503229 C270.953095,343.615308 273.587531,346.30578 268.490212,355.494174 C263.392468,364.682145 271.395565,371.983527 277.566362,370.908015 C283.736734,369.832503 294.054517,367.621822 292.698657,375.371687 C291.343222,383.122398 303.342135,390.203346 310.823356,385.392312 C318.304577,380.581701 315.309626,373.089502 313.732106,365.929858 C312.154162,358.770213 318.373792,356.583226 327.215969,347.89324 C336.05772,339.203254 332.95661,327.643825 327.437628,324.431674" id="Fill-1080" fill="#434242" mask="url(#mask-12)"></path>
                <path d="M286.618435,304.464973 C283.524544,311.341566 292.631692,311.933901 294.126408,319.977818 C295.621123,328.022158 288.268992,328.256554 287.401037,335.263038 C286.533508,342.269944 294.087341,341.460983 292.142937,350.242358 C290.306391,358.534633 283.52964,358.40305 281.887151,370.178681 C280.361013,370.402499 278.870968,370.680474 277.566065,370.907677 C271.395692,371.983189 263.392595,364.681807 268.489914,355.493836 C273.587659,346.305865 270.953223,343.615392 266.091151,339.503314 C261.229079,335.391659 262.786216,327.066383 266.57566,323.550025 C270.365528,320.032821 273.647957,315.533186 270.806299,309.06192 C267.964641,302.590654 265.887326,300.254736 269.976987,293.940016 C274.066222,287.626142 273.525237,286.416085 271.95154,282.160154 C270.377417,277.9038 274.235949,270.505021 274.235949,270.505021 C274.235949,270.505021 285.922034,278.36836 288.479611,283.616876 C291.037188,288.865393 289.712326,297.588803 286.618435,304.464973 Z" id="Fill-1081" fill="#353535" mask="url(#mask-12)"></path>
                <path d="M448.278027,288.840726 L378.858685,288.840726 L385.453268,248.712107 C385.857945,246.250106 387.99301,244.442637 390.497508,244.442637 L451.497185,244.442637 C453.633524,244.442637 455.260726,246.35038 454.915498,248.451056 L448.278027,288.840726 Z" id="Fill-1082" fill="#CF5551" mask="url(#mask-12)"></path>
                <path d="M449.520212,288.840726 L380.10087,288.840726 L386.695453,248.712107 C387.10013,246.250106 389.23562,244.442637 391.739693,244.442637 L452.73937,244.442637 C454.875709,244.442637 456.502911,246.35038 456.157683,248.451056 L449.520212,288.840726 Z" id="Fill-1083" fill="#E85F5B" mask="url(#mask-12)"></path>
                <path d="M361.979143,294.040205 L449.520212,294.040205 L449.520212,288.840768 L366.969455,288.840768 C364.213573,288.840768 361.979143,291.067104 361.979143,293.813425 L361.979143,294.040205 Z" id="Fill-1084" fill="#698792" mask="url(#mask-12)"></path>
                <path d="M426.936165,267.347491 C426.936165,270.688687 424.217651,273.397776 420.863884,273.397776 C417.51054,273.397776 414.792027,270.688687 414.792027,267.347491 C414.792027,264.006296 417.51054,261.297207 420.863884,261.297207 C424.217651,261.297207 426.936165,264.006296 426.936165,267.347491" id="Fill-1085" fill="#F0836D" mask="url(#mask-12)"></path>
            </g>
            <g transform="translate(89.743590, 96.961697)" fill="#FFFFFF">
                <path d="M110.883994,20.3548398 C108.478626,20.3548398 106.528958,18.4090865 106.528958,16.0090702 C106.528958,13.6090538 108.478626,11.6637239 110.883994,11.6637239 C111.007466,11.6637239 111.128817,11.6717677 111.249743,11.6823517 C112.140353,9.13712351 114.566087,7.31033385 117.420791,7.31033385 C120.28186,7.31033385 122.712262,9.14559067 123.59778,11.7001327 C123.77429,11.6785414 123.952921,11.6637239 124.135371,11.6637239 C124.825286,11.6637239 125.475317,11.8279868 126.055338,12.1129067 C127.001531,10.3551244 128.860398,9.15913813 131.000578,9.15913813 C134.098831,9.15913813 136.610699,11.6654173 136.610699,14.7567773 C136.610699,17.8485606 134.098831,20.3548398 131.000578,20.3548398 L110.883994,20.3548398 Z" id="Fill-1098"></path>
                <path d="M27.1097172,27.9273169 C30.0951063,27.9273169 32.5153251,25.512483 32.5153251,22.5337363 C32.5153251,19.5549896 30.0951063,17.1401557 27.1097172,17.1401557 C26.4605351,17.1401557 25.8410542,17.259966 25.2644277,17.4691048 C24.3245987,13.8900365 21.0617162,11.2491294 17.1802012,11.2491294 C13.424704,11.2491294 10.2479547,13.7206933 9.19441277,17.1223746 C8.3216235,16.6024911 7.30542014,16.29852 6.21538824,16.29852 C2.99705737,16.29852 0.388024203,18.9021716 0.388024203,22.1133418 C0.388024203,25.3245121 2.99705737,27.9273169 6.21538824,27.9273169 L27.1097172,27.9273169 Z" id="Fill-1100"></path>
                <path d="M342.932566,27.0375878 C347.71445,27.0375878 351.590873,23.169366 351.590873,18.3985449 C351.590873,13.6273005 347.71445,9.75950207 342.932566,9.75950207 C341.893026,9.75950207 340.900584,9.95212995 339.977303,10.2874295 C338.472303,4.55516248 333.246175,0.324969582 327.028878,0.324969582 C321.013972,0.324969582 315.926591,4.28336666 314.238717,9.73156045 C312.841067,8.89923867 311.213444,8.41237699 309.467441,8.41237699 C304.31302,8.41237699 300.134494,12.5816063 300.134494,17.7249824 C300.134494,22.8679351 304.31302,27.0375878 309.467441,27.0375878 L342.932566,27.0375878 Z" id="Fill-1102"></path>
            </g>
        </g>
    </g>
</svg>